<svg version="1.1" id="Layer_1" xmlns="http://www.w3.org/2000/svg" xmlns:xlink="http://www.w3.org/1999/xlink" x="0px" y="0px"
	 width="100%" viewBox="0 0 771 307" enable-background="new 0 0 771 307" xml:space="preserve">
<path fill="#fff" opacity="0" stroke="none"
	d="
M629.000000,308.000000
	C419.381805,308.000000 210.263611,308.000000 1.072709,308.000000
	C1.072709,205.738907 1.072709,103.477730 1.072709,1.108282
	C257.999969,1.108282 515.000000,1.108282 771.983276,1.108282
	C771.983276,103.403099 771.983276,205.701553 771.983276,308.000000
	C724.477661,308.000000 676.988831,308.000000 629.000000,308.000000
M217.417511,162.069534
	C182.336273,162.069534 147.255020,162.069534 112.002632,162.069534
	C114.074638,178.997025 116.072166,195.316010 118.123520,212.074738
	C122.661148,212.074738 127.104515,212.074738 131.761398,212.074738
	C132.093109,215.203323 132.378677,217.896713 132.712555,221.045654
	C128.165070,221.045654 124.060661,221.045654 119.956261,221.045654
	C119.747093,221.609085 119.537926,222.172516 119.328766,222.735931
	C120.764603,223.491226 122.197609,224.899277 123.636703,224.905518
	C153.126068,225.033676 182.616302,225.037262 212.105530,224.892899
	C213.518860,224.885971 214.924423,223.291580 216.333603,222.436447
	C216.099625,221.934265 215.865631,221.432098 215.631638,220.929932
	C211.515427,220.929932 207.399200,220.929932 202.825027,220.929932
	C203.150269,217.802048 203.432037,215.092316 203.749130,212.042816
	C208.499771,212.042816 212.795731,212.042816 217.415878,212.042816
	C219.445633,195.292694 221.433167,178.891006 223.471573,162.069534
	C221.344193,162.069534 219.871094,162.069534 217.417511,162.069534
M220.454758,144.053787
	C211.297241,142.407242 202.165726,140.587814 192.968506,139.205460
	C189.631226,138.703842 185.837204,138.392410 182.769516,139.469421
	C172.767899,142.980789 163.023163,143.419067 153.130173,139.362701
	C151.656097,138.758286 149.852997,138.368011 148.313812,138.604782
	C137.148209,140.322525 125.994606,142.132431 114.870705,144.102371
	C106.339912,145.613083 101.535393,151.012924 100.003632,159.393890
	C98.229965,169.098511 94.717873,178.131912 90.485947,187.029846
	C88.029282,192.195145 86.493202,197.926636 85.368263,203.567963
	C83.515808,212.857590 88.048607,221.317627 96.387253,223.229721
	C103.044548,224.756271 110.063049,224.707703 117.277458,225.392075
	C116.826744,222.372955 116.520966,220.324722 116.145203,217.807678
	C120.750107,217.807678 124.975334,217.807678 129.200562,217.807678
	C125.451935,213.149338 120.159866,216.311447 115.427223,214.369476
	C113.214882,196.241028 110.972923,177.869934 108.706566,159.298889
	C148.473511,159.298889 187.551483,159.298889 226.843994,159.298889
	C224.549637,177.960236 222.285187,196.378357 220.069702,214.398193
	C215.150482,216.176849 209.938126,213.146454 206.229202,217.926682
	C210.487198,217.926682 214.745178,217.926682 219.207932,217.926682
	C218.947266,220.488922 218.736084,222.564774 218.459259,225.285934
	C224.245605,224.827576 229.677597,224.355270 235.116089,223.975937
	C244.287537,223.336227 250.439804,217.308853 250.174347,208.128845
	C250.028320,203.078781 249.105286,197.836472 247.397827,193.088959
	C243.266434,181.601669 237.173859,170.850983 235.194260,158.550522
	C233.936020,150.732269 229.118118,145.859589 220.454758,144.053787
M136.494476,120.892883
	C139.599670,124.523003 142.262512,128.689682 145.892990,131.682632
	C156.783035,140.660370 172.450287,141.762787 184.679855,134.992233
	C197.495392,127.897263 204.639832,114.644485 203.180527,100.673912
	C201.615662,85.692726 192.146362,73.817719 178.133133,69.744347
	C163.433517,65.471466 150.601898,69.150078 140.791107,80.699837
	C130.706589,92.571846 129.362167,106.086334 136.494476,120.892883
M632.455139,128.076569
	C631.295837,124.455872 629.507080,122.460159 625.013123,122.471848
	C620.370911,122.483910 619.537903,125.414886 618.254761,128.399246
	C614.850037,136.317825 611.478088,144.251434 608.206787,152.225723
	C607.501526,153.944992 607.274292,155.860367 606.823608,157.698532
	C615.123108,159.547638 615.919312,159.144974 618.794983,152.238602
	C620.891174,147.204117 623.008850,142.178589 625.505859,136.221313
	C629.312744,145.373672 632.658508,153.417358 636.124939,161.751190
	C634.734680,161.827591 633.922424,161.910095 633.110107,161.911011
	C624.614197,161.920685 616.118103,161.891479 607.622375,161.930939
	C604.494568,161.945480 601.035522,165.605408 601.408752,168.709732
	C601.844116,172.331635 604.872864,171.115402 606.936462,171.131561
	C619.429749,171.229340 631.924133,171.195450 644.418152,171.173248
	C649.890930,171.163528 650.334290,170.484619 648.208801,165.421295
	C643.077271,153.196762 637.918884,140.983505 632.455139,128.076569
M291.266205,158.281448
	C296.677887,159.756226 299.472412,157.423660 301.135651,152.275299
	C302.811035,147.089340 305.240173,142.146881 307.709808,136.205856
	C311.428131,145.049500 314.852814,153.194702 318.450623,161.751633
	C316.994415,161.831024 316.210236,161.910141 315.426025,161.910965
	C306.763092,161.920120 298.099426,161.985779 289.437561,161.889359
	C284.879761,161.838608 284.450104,165.605042 284.016296,168.358841
	C283.425568,172.108597 286.919098,171.124939 288.990417,171.138901
	C301.484497,171.223053 313.979401,171.195679 326.473999,171.174057
	C332.194977,171.164169 332.706421,170.451660 330.473022,165.162720
	C324.992920,152.185394 319.320953,139.287643 313.986694,126.251266
	C312.815735,123.389633 311.272064,122.438400 308.401978,122.645142
	C305.663788,122.842384 303.066895,122.129410 301.611267,125.928673
	C298.055481,135.209564 293.828674,144.231613 290.100891,153.450424
	C289.575348,154.750168 290.332397,156.568512 291.266205,158.281448
M508.681427,149.277130
	C508.679749,155.267441 508.780151,161.260178 508.638214,167.247162
	C508.552521,170.861664 510.571259,171.194122 513.436951,171.143051
	C516.263062,171.092697 518.385010,170.795609 518.223694,167.161911
	C518.057617,163.420624 518.186829,159.666245 518.186829,155.235046
	C523.641357,155.235046 528.460266,155.526917 533.231262,155.172821
	C542.480652,154.486343 548.121277,148.180206 548.051941,139.098328
	C547.980896,129.783035 542.133667,123.364334 532.762695,122.866051
	C526.124756,122.513092 519.454529,122.816620 512.803955,122.633789
	C509.438965,122.541283 508.558899,124.074951 508.608063,127.164406
	C508.658173,130.310684 509.272217,132.155472 513.046753,132.013626
	C519.026367,131.788940 525.027283,131.884872 531.010925,132.088165
	C535.942444,132.255737 538.315918,134.658463 538.352966,138.980713
	C538.391479,143.473419 536.245361,145.775513 531.201233,145.984421
	C525.387573,146.225159 519.550476,145.944962 513.742493,146.250778
	C512.046204,146.340103 510.414642,147.657883 508.681427,149.277130
M696.871643,124.014488
	C696.394043,123.625839 695.922363,122.906982 695.437927,122.898285
	C688.610596,122.775696 681.773010,122.570419 674.961853,122.892059
	C673.931213,122.940727 672.205933,125.537247 672.182678,126.977539
	C671.967468,140.306458 672.123352,153.640839 672.009338,166.972260
	C671.979797,170.423721 673.358093,171.709396 676.728943,171.777863
	C680.647095,171.857452 681.969055,170.205902 681.911621,166.365021
	C681.742859,155.082489 681.851440,143.795807 681.851440,132.088013
	C684.789246,132.088013 687.245178,132.088181 689.701111,132.087982
	C697.069031,132.087418 697.069031,132.087357 696.871643,124.014488
M465.824677,132.296265
	C470.211090,129.969864 467.947815,126.425835 467.773376,122.723991
	C465.830994,122.988434 464.177704,123.013641 462.643616,123.454071
	C450.542511,126.928123 443.144562,140.501389 446.472961,153.139511
	C448.852264,162.174011 454.318207,168.423660 463.488220,170.870056
	C464.822205,171.225952 467.363525,170.517853 467.970367,169.489899
	C469.805969,166.380569 468.056641,162.600372 464.650513,161.114090
	C458.370453,158.373764 455.157196,153.405594 455.349823,146.733658
	C455.552094,139.728363 458.690277,135.249634 465.824677,132.296265
M472.271698,128.170227
	C473.654266,129.796478 474.720428,132.082870 476.478577,132.925537
	C481.808624,135.480225 484.671906,139.422638 485.154419,145.239441
	C485.819000,153.250748 483.091400,158.154938 475.649414,161.316116
	C471.390594,163.125137 471.607483,166.426392 472.928040,169.491608
	C473.345215,170.459976 476.810242,170.904739 478.525055,170.394592
	C488.543915,167.413910 495.022339,157.941666 494.979584,146.934753
	C494.937103,135.998886 488.267151,126.595520 478.337952,123.439217
	C474.699860,122.282738 472.003754,122.514587 472.271698,128.170227
M393.089600,129.589111
	C381.362457,141.331299 384.552429,164.268890 402.323822,170.550873
	C407.601868,172.416626 410.138184,170.424286 408.793518,165.007446
	C408.420441,163.504715 406.442871,161.982880 404.844971,161.279053
	C399.835724,159.072601 396.952850,155.354538 396.133820,150.087982
	C394.830658,141.708298 397.889557,136.069931 405.854279,132.752808
	C410.043823,131.007935 409.331085,127.620132 408.536377,124.870125
	C408.261292,123.918190 404.195343,123.101494 402.423370,123.752892
	C399.255859,124.917282 396.515320,127.243187 393.089600,129.589111
M416.629089,161.349396
	C411.611481,162.507874 412.206726,166.688614 413.214386,169.681000
	C414.440582,173.322327 417.696075,171.077698 419.974213,170.254211
	C429.500549,166.810822 436.216217,156.870514 435.366211,147.028503
	C435.245575,145.632004 432.937592,143.410034 431.524658,143.315033
	C425.393463,142.902786 419.217316,143.217941 413.060516,143.104889
	C409.651276,143.042297 408.944519,144.774216 408.897156,147.793304
	C408.848297,150.906967 409.845184,152.553833 413.068878,152.545151
	C416.795929,152.535126 420.523071,152.542831 424.250153,152.542831
	C424.547852,153.129929 424.845520,153.717026 425.143219,154.304123
	C422.537170,156.545502 419.931152,158.786865 416.629089,161.349396
M343.142822,135.537720
	C343.143066,145.861938 343.195190,156.186584 343.113953,166.510162
	C343.087280,169.902878 344.424744,171.275940 347.896515,171.164230
	C350.907227,171.067352 353.035828,170.826721 352.998596,166.945633
	C352.869141,153.458771 352.998077,139.969406 352.862000,126.482666
	C352.849854,125.280098 351.923645,123.476509 350.922638,122.999260
	C346.463470,120.873268 343.199432,123.115570 343.146759,128.059921
	C343.123688,130.224426 343.142822,132.389389 343.142822,135.537720
M565.425781,171.073166
	C568.351440,171.330429 570.156433,170.621735 570.123230,167.060760
	C569.997131,153.566132 570.005859,140.069092 570.114380,126.574158
	C570.143982,122.888687 568.007141,122.640770 565.247498,122.672897
	C562.717041,122.702347 560.643066,122.841782 560.665344,126.295059
	C560.753479,139.956894 560.717773,153.619690 560.682556,167.282013
	C560.675720,169.944489 561.633179,171.431137 565.425781,171.073166
M433.168579,137.363724
	C431.149323,130.232574 425.984375,126.188896 419.426575,123.684959
	C414.081787,121.644211 411.740417,123.650764 413.045441,129.219986
	C413.349701,130.518417 414.877502,131.669998 416.073242,132.588593
	C418.131592,134.169907 420.678802,135.211594 422.468750,137.024796
	C425.846497,140.446396 429.257996,140.107239 433.168579,137.363724
M594.070435,164.652100
	C592.804016,163.709061 591.604919,162.086304 590.258240,161.952774
	C586.492920,161.579391 582.661194,161.945221 578.865723,161.784073
	C575.594177,161.645172 574.052551,162.671860 574.069580,166.258606
	C574.086853,169.904480 575.382751,171.385422 579.057739,171.126892
	C582.183350,170.906982 585.360168,170.838791 588.472046,171.140045
	C592.820068,171.560944 594.712280,169.936005 594.070435,164.652100
M359.930237,171.070572
	C364.070679,171.073563 368.221191,170.899536 372.348541,171.133377
	C375.896301,171.334396 376.946472,169.868164 376.924438,166.487274
	C376.902954,163.186707 376.013428,161.523804 372.398254,161.774384
	C369.101715,162.002853 365.762299,161.637650 362.470306,161.896500
	C360.685272,162.036865 357.458832,162.947693 357.463928,163.486404
	C357.487671,165.979614 358.416656,168.464233 359.930237,171.070572
M662.513794,122.683670
	C660.739380,122.824364 658.964905,122.965050 656.288269,123.177277
	C658.046021,126.401352 653.994812,131.116806 659.730164,131.858383
	C662.436035,132.208267 667.216187,134.501709 667.968933,128.698853
	C668.409058,125.306168 668.195068,122.117554 662.513794,122.683670
z"/>
<path fill="#010101" opacity="1.000000" stroke="none"
	d="
M217.907761,162.069534
	C219.871094,162.069534 221.344193,162.069534 223.471573,162.069534
	C221.433167,178.891006 219.445633,195.292694 217.415878,212.042816
	C212.795731,212.042816 208.499771,212.042816 203.749130,212.042816
	C203.432037,215.092316 203.150269,217.802048 202.825027,220.929932
	C207.399200,220.929932 211.515427,220.929932 215.631638,220.929932
	C215.865631,221.432098 216.099625,221.934265 216.333603,222.436447
	C214.924423,223.291580 213.518860,224.885971 212.105530,224.892899
	C182.616302,225.037262 153.126068,225.033676 123.636703,224.905518
	C122.197609,224.899277 120.764603,223.491226 119.328766,222.735931
	C119.537926,222.172516 119.747093,221.609085 119.956261,221.045654
	C124.060661,221.045654 128.165070,221.045654 132.712555,221.045654
	C132.378677,217.896713 132.093109,215.203323 131.761398,212.074738
	C127.104515,212.074738 122.661148,212.074738 118.123520,212.074738
	C116.072166,195.316010 114.074638,178.997025 112.002632,162.069534
	C147.255020,162.069534 182.336273,162.069534 217.907761,162.069534
z"/>
<path fill="#040404" opacity="1.000000" stroke="none"
	d="
M220.847717,144.140594
	C229.118118,145.859589 233.936020,150.732269 235.194260,158.550522
	C237.173859,170.850983 243.266434,181.601669 247.397827,193.088959
	C249.105286,197.836472 250.028320,203.078781 250.174347,208.128845
	C250.439804,217.308853 244.287537,223.336227 235.116089,223.975937
	C229.677597,224.355270 224.245605,224.827576 218.459259,225.285934
	C218.736084,222.564774 218.947266,220.488922 219.207932,217.926682
	C214.745178,217.926682 210.487198,217.926682 206.229202,217.926682
	C209.938126,213.146454 215.150482,216.176849 220.069702,214.398193
	C222.285187,196.378357 224.549637,177.960236 226.843994,159.298889
	C187.551483,159.298889 148.473511,159.298889 108.706566,159.298889
	C110.972923,177.869934 113.214882,196.241028 115.427223,214.369476
	C120.159866,216.311447 125.451935,213.149338 129.200562,217.807678
	C124.975334,217.807678 120.750107,217.807678 116.145203,217.807678
	C116.520966,220.324722 116.826744,222.372955 117.277458,225.392075
	C110.063049,224.707703 103.044548,224.756271 96.387253,223.229721
	C88.048607,221.317627 83.515808,212.857590 85.368263,203.567963
	C86.493202,197.926636 88.029282,192.195145 90.485947,187.029846
	C94.717873,178.131912 98.229965,169.098511 100.003632,159.393890
	C101.535393,151.012924 106.339912,145.613083 114.870705,144.102371
	C125.994606,142.132431 137.148209,140.322525 148.313812,138.604782
	C149.852997,138.368011 151.656097,138.758286 153.130173,139.362701
	C163.023163,143.419067 172.767899,142.980789 182.769516,139.469421
	C185.837204,138.392410 189.631226,138.703842 192.968506,139.205460
	C202.165726,140.587814 211.297241,142.407242 220.847717,144.140594
z"/>
<path fill="#020202" opacity="1.000000" stroke="none"
	d="
M136.295776,120.575981
	C129.362167,106.086334 130.706589,92.571846 140.791107,80.699837
	C150.601898,69.150078 163.433517,65.471466 178.133133,69.744347
	C192.146362,73.817719 201.615662,85.692726 203.180527,100.673912
	C204.639832,114.644485 197.495392,127.897263 184.679855,134.992233
	C172.450287,141.762787 156.783035,140.660370 145.892990,131.682632
	C142.262512,128.689682 139.599670,124.523003 136.295776,120.575981
z"/>
<path fill="#050505" opacity="1.000000" stroke="none"
	d="
M632.613220,128.421143
	C637.918884,140.983505 643.077271,153.196762 648.208801,165.421295
	C650.334290,170.484619 649.890930,171.163528 644.418152,171.173248
	C631.924133,171.195450 619.429749,171.229340 606.936462,171.131561
	C604.872864,171.115402 601.844116,172.331635 601.408752,168.709732
	C601.035522,165.605408 604.494568,161.945480 607.622375,161.930939
	C616.118103,161.891479 624.614197,161.920685 633.110107,161.911011
	C633.922424,161.910095 634.734680,161.827591 636.124939,161.751190
	C632.658508,153.417358 629.312744,145.373672 625.505859,136.221313
	C623.008850,142.178589 620.891174,147.204117 618.794983,152.238602
	C615.919312,159.144974 615.123108,159.547638 606.823608,157.698532
	C607.274292,155.860367 607.501526,153.944992 608.206787,152.225723
	C611.478088,144.251434 614.850037,136.317825 618.254761,128.399246
	C619.537903,125.414886 620.370911,122.483910 625.013123,122.471848
	C629.507080,122.460159 631.295837,124.455872 632.613220,128.421143
z"/>
<path fill="#050505" opacity="1.000000" stroke="none"
	d="
M290.880981,158.214142
	C290.332397,156.568512 289.575348,154.750168 290.100891,153.450424
	C293.828674,144.231613 298.055481,135.209564 301.611267,125.928673
	C303.066895,122.129410 305.663788,122.842384 308.401978,122.645142
	C311.272064,122.438400 312.815735,123.389633 313.986694,126.251266
	C319.320953,139.287643 324.992920,152.185394 330.473022,165.162720
	C332.706421,170.451660 332.194977,171.164169 326.473999,171.174057
	C313.979401,171.195679 301.484497,171.223053 288.990417,171.138901
	C286.919098,171.124939 283.425568,172.108597 284.016296,168.358841
	C284.450104,165.605042 284.879761,161.838608 289.437561,161.889359
	C298.099426,161.985779 306.763092,161.920120 315.426025,161.910965
	C316.210236,161.910141 316.994415,161.831024 318.450623,161.751633
	C314.852814,153.194702 311.428131,145.049500 307.709808,136.205856
	C305.240173,142.146881 302.811035,147.089340 301.135651,152.275299
	C299.472412,157.423660 296.677887,159.756226 290.880981,158.214142
z"/>
<path fill="#080808" opacity="1.000000" stroke="none"
	d="
M508.717407,148.844864
	C510.414642,147.657883 512.046204,146.340103 513.742493,146.250778
	C519.550476,145.944962 525.387573,146.225159 531.201233,145.984421
	C536.245361,145.775513 538.391479,143.473419 538.352966,138.980713
	C538.315918,134.658463 535.942444,132.255737 531.010925,132.088165
	C525.027283,131.884872 519.026367,131.788940 513.046753,132.013626
	C509.272217,132.155472 508.658173,130.310684 508.608063,127.164406
	C508.558899,124.074951 509.438965,122.541283 512.803955,122.633789
	C519.454529,122.816620 526.124756,122.513092 532.762695,122.866051
	C542.133667,123.364334 547.980896,129.783035 548.051941,139.098328
	C548.121277,148.180206 542.480652,154.486343 533.231262,155.172821
	C528.460266,155.526917 523.641357,155.235046 518.186829,155.235046
	C518.186829,159.666245 518.057617,163.420624 518.223694,167.161911
	C518.385010,170.795609 516.263062,171.092697 513.436951,171.143051
	C510.571259,171.194122 508.552521,170.861664 508.638214,167.247162
	C508.780151,161.260178 508.679749,155.267441 508.717407,148.844864
z"/>
<path fill="#080808" opacity="1.000000" stroke="none"
	d="
M696.920410,124.454994
	C697.069031,132.087357 697.069031,132.087418 689.701111,132.087982
	C687.245178,132.088181 684.789246,132.088013 681.851440,132.088013
	C681.851440,143.795807 681.742859,155.082489 681.911621,166.365021
	C681.969055,170.205902 680.647095,171.857452 676.728943,171.777863
	C673.358093,171.709396 671.979797,170.423721 672.009338,166.972260
	C672.123352,153.640839 671.967468,140.306458 672.182678,126.977539
	C672.205933,125.537247 673.931213,122.940727 674.961853,122.892059
	C681.773010,122.570419 688.610596,122.775696 695.437927,122.898285
	C695.922363,122.906982 696.394043,123.625839 696.920410,124.454994
z"/>
<path fill="#080808" opacity="1.000000" stroke="none"
	d="
M465.506134,132.494934
	C458.690277,135.249634 455.552094,139.728363 455.349823,146.733658
	C455.157196,153.405594 458.370453,158.373764 464.650513,161.114090
	C468.056641,162.600372 469.805969,166.380569 467.970367,169.489899
	C467.363525,170.517853 464.822205,171.225952 463.488220,170.870056
	C454.318207,168.423660 448.852264,162.174011 446.472961,153.139511
	C443.144562,140.501389 450.542511,126.928123 462.643616,123.454071
	C464.177704,123.013641 465.830994,122.988434 467.773376,122.723991
	C467.947815,126.425835 470.211090,129.969864 465.506134,132.494934
z"/>
<path fill="#0A0A0A" opacity="1.000000" stroke="none"
	d="
M472.271118,127.766716
	C472.003754,122.514587 474.699860,122.282738 478.337952,123.439217
	C488.267151,126.595520 494.937103,135.998886 494.979584,146.934753
	C495.022339,157.941666 488.543915,167.413910 478.525055,170.394592
	C476.810242,170.904739 473.345215,170.459976 472.928040,169.491608
	C471.607483,166.426392 471.390594,163.125137 475.649414,161.316116
	C483.091400,158.154938 485.819000,153.250748 485.154419,145.239441
	C484.671906,139.422638 481.808624,135.480225 476.478577,132.925537
	C474.720428,132.082870 473.654266,129.796478 472.271118,127.766716
z"/>
<path fill="#0A0A0A" opacity="1.000000" stroke="none"
	d="
M393.342957,129.336304
	C396.515320,127.243187 399.255859,124.917282 402.423370,123.752892
	C404.195343,123.101494 408.261292,123.918190 408.536377,124.870125
	C409.331085,127.620132 410.043823,131.007935 405.854279,132.752808
	C397.889557,136.069931 394.830658,141.708298 396.133820,150.087982
	C396.952850,155.354538 399.835724,159.072601 404.844971,161.279053
	C406.442871,161.982880 408.420441,163.504715 408.793518,165.007446
	C410.138184,170.424286 407.601868,172.416626 402.323822,170.550873
	C384.552429,164.268890 381.362457,141.331299 393.342957,129.336304
z"/>
<path fill="#0C0C0C" opacity="1.000000" stroke="none"
	d="
M416.977112,161.188812
	C419.931152,158.786865 422.537170,156.545502 425.143219,154.304123
	C424.845520,153.717026 424.547852,153.129929 424.250153,152.542831
	C420.523071,152.542831 416.795929,152.535126 413.068878,152.545151
	C409.845184,152.553833 408.848297,150.906967 408.897156,147.793304
	C408.944519,144.774216 409.651276,143.042297 413.060516,143.104889
	C419.217316,143.217941 425.393463,142.902786 431.524658,143.315033
	C432.937592,143.410034 435.245575,145.632004 435.366211,147.028503
	C436.216217,156.870514 429.500549,166.810822 419.974213,170.254211
	C417.696075,171.077698 414.440582,173.322327 413.214386,169.681000
	C412.206726,166.688614 411.611481,162.507874 416.977112,161.188812
z"/>
<path fill="#0A0A0A" opacity="1.000000" stroke="none"
	d="
M343.142822,135.045929
	C343.142822,132.389389 343.123688,130.224426 343.146759,128.059921
	C343.199432,123.115570 346.463470,120.873268 350.922638,122.999260
	C351.923645,123.476509 352.849854,125.280098 352.862000,126.482666
	C352.998077,139.969406 352.869141,153.458771 352.998596,166.945633
	C353.035828,170.826721 350.907227,171.067352 347.896515,171.164230
	C344.424744,171.275940 343.087280,169.902878 343.113953,166.510162
	C343.195190,156.186584 343.143066,145.861938 343.142822,135.045929
z"/>
<path fill="#010101" opacity="1.000000" stroke="none"
	d="
M564.970947,171.073105
	C561.633179,171.431137 560.675720,169.944489 560.682556,167.282013
	C560.717773,153.619690 560.753479,139.956894 560.665344,126.295059
	C560.643066,122.841782 562.717041,122.702347 565.247498,122.672897
	C568.007141,122.640770 570.143982,122.888687 570.114380,126.574158
	C570.005859,140.069092 569.997131,153.566132 570.123230,167.060760
	C570.156433,170.621735 568.351440,171.330429 564.970947,171.073105
z"/>
<path fill="#090909" opacity="1.000000" stroke="none"
	d="
M433.081329,137.698547
	C429.257996,140.107239 425.846497,140.446396 422.468750,137.024796
	C420.678802,135.211594 418.131592,134.169907 416.073242,132.588593
	C414.877502,131.669998 413.349701,130.518417 413.045441,129.219986
	C411.740417,123.650764 414.081787,121.644211 419.426575,123.684959
	C425.984375,126.188896 431.149323,130.232574 433.081329,137.698547
z"/>
<path fill="#050505" opacity="1.000000" stroke="none"
	d="
M594.075562,165.105759
	C594.712280,169.936005 592.820068,171.560944 588.472046,171.140045
	C585.360168,170.838791 582.183350,170.906982 579.057739,171.126892
	C575.382751,171.385422 574.086853,169.904480 574.069580,166.258606
	C574.052551,162.671860 575.594177,161.645172 578.865723,161.784073
	C582.661194,161.945221 586.492920,161.579391 590.258240,161.952774
	C591.604919,162.086304 592.804016,163.709061 594.075562,165.105759
z"/>
<path fill="#040404" opacity="1.000000" stroke="none"
	d="
M359.475769,171.011261
	C358.416656,168.464233 357.487671,165.979614 357.463928,163.486404
	C357.458832,162.947693 360.685272,162.036865 362.470306,161.896500
	C365.762299,161.637650 369.101715,162.002853 372.398254,161.774384
	C376.013428,161.523804 376.902954,163.186707 376.924438,166.487274
	C376.946472,169.868164 375.896301,171.334396 372.348541,171.133377
	C368.221191,170.899536 364.070679,171.073563 359.475769,171.011261
z"/>
<path fill="#040404" opacity="1.000000" stroke="none"
	d="
M662.919434,122.683762
	C668.195068,122.117554 668.409058,125.306168 667.968933,128.698853
	C667.216187,134.501709 662.436035,132.208267 659.730164,131.858383
	C653.994812,131.116806 658.046021,126.401352 656.288269,123.177277
	C658.964905,122.965050 660.739380,122.824364 662.919434,122.683762
z"/>
</svg>
